<?xml version="1.0" standalone="no"?>
<!DOCTYPE svg PUBLIC "-//W3C//DTD SVG 20010904//EN"
 "http://www.w3.org/TR/2001/REC-SVG-20010904/DTD/svg10.dtd">
<svg version="1.0" xmlns="http://www.w3.org/2000/svg"
 width="481.000000pt" height="481.000000pt" viewBox="0 0 481.000000 481.000000"
 preserveAspectRatio="xMidYMid meet">
<metadata>
Created by potrace 1.15, written by Peter Selinger 2001-2017
</metadata>
<g transform="translate(0.000000,481.000000) scale(0.100000,-0.100000)"
fill="#000000" stroke="none">
<path d="M218 4796 c-24 -18 -23 -43 2 -51 24 -8 26 -30 4 -39 -33 -13 -133 3
-158 26 -16 13 -43 9 -50 -7 -10 -26 5 -45 46 -55 23 -7 38 -16 35 -23 -5 -16
-51 -21 -77 -7 -17 9 -20 8 -20 -10 0 -15 7 -20 25 -20 14 0 25 -4 25 -10 0
-5 -11 -10 -24 -10 l-25 0 0 -582 c0 -539 1 -581 15 -553 20 37 54 75 67 75
14 0 32 26 71 100 18 36 62 119 96 185 54 101 101 195 190 374 44 90 108 197
133 222 15 16 27 33 27 38 0 5 14 11 32 15 17 3 59 19 92 35 34 15 86 36 116
46 30 10 101 40 158 67 116 55 183 67 342 63 117 -3 165 -12 208 -36 18 -10
47 -19 63 -19 17 0 44 -7 61 -16 17 -9 44 -14 59 -12 16 3 29 2 29 -1 0 -8 51
-30 81 -37 13 -2 65 -11 114 -20 50 -9 95 -19 100 -22 36 -23 120 -23 144 -1
11 11 25 19 31 19 18 0 74 32 83 46 4 8 16 14 26 14 15 0 95 38 206 98 11 6
35 16 53 22 17 7 32 18 32 24 0 8 3 8 8 -1 5 -8 24 2 61 33 l53 44 -206 0
c-168 0 -208 -3 -212 -14 -6 -16 -44 -29 -44 -14 0 5 -5 6 -10 3 -6 -4 -8 -11
-4 -16 3 -6 -4 -7 -18 -4 -13 3 -35 2 -48 -3 -18 -7 -36 -5 -62 5 -21 8 -45
13 -53 9 -9 -3 -15 0 -15 8 0 8 -7 17 -16 20 -9 3 -424 6 -922 6 -738 -1 -910
-3 -924 -14z"/>
<path d="M3063 4752 c-33 -32 -71 -76 -82 -99 -12 -24 -28 -43 -36 -43 -16 0
-58 -77 -46 -85 5 -2 33 -5 64 -6 48 -2 56 -5 59 -23 2 -17 11 -21 42 -21 23
-1 42 -7 44 -14 4 -11 6 -11 13 0 7 12 9 11 9 -1 0 -13 2 -13 9 -1 8 12 19 11
73 -6 44 -14 65 -17 71 -9 5 6 6 2 3 -9 -5 -16 -1 -21 15 -22 26 -2 166 -22
200 -29 17 -3 33 1 43 11 9 9 16 12 16 6 0 -6 13 -8 33 -6 17 3 26 3 20 -1
-29 -13 -9 -19 73 -22 48 -1 98 -9 112 -16 15 -8 54 -19 87 -24 33 -6 74 -13
90 -16 l30 -6 -32 15 c-18 8 -33 18 -33 21 0 3 5 2 10 -1 6 -4 17 -1 25 5 12
10 20 9 40 -4 14 -9 25 -12 25 -7 0 5 14 12 30 16 24 5 30 12 31 33 1 17 3 20
6 10 2 -10 14 -17 26 -17 12 0 40 -5 62 -11 22 -6 49 -12 60 -13 11 -1 21 -12
25 -27 4 -18 8 -21 14 -12 16 27 84 -8 99 -51 4 -10 20 -23 37 -28 16 -6 30
-15 30 -20 0 -5 16 -25 35 -45 19 -19 38 -46 41 -59 4 -18 13 -25 30 -25 39 0
60 -31 68 -98 6 -52 3 -71 -19 -125 -28 -70 -31 -126 -12 -199 12 -46 37 -86
37 -60 0 6 6 9 14 6 7 -3 13 -13 12 -22 -1 -13 7 -17 33 -17 l34 0 -7 -131
c-6 -131 4 -207 23 -175 10 16 31 6 31 -15 0 -8 5 -14 10 -14 7 0 7 -6 0 -19
-13 -24 -13 -104 -1 -96 5 3 12 -9 14 -27 2 -18 5 360 5 840 l2 872 -512 -2
-513 -3 -13 -27 c-7 -16 -17 -28 -23 -28 -5 0 -9 -7 -9 -15 0 -17 -25 -20 -35
-5 -3 5 0 8 7 5 14 -5 61 59 51 69 -4 3 -14 -7 -23 -22 -10 -16 -25 -29 -34
-29 -20 0 -21 13 -1 21 8 3 15 12 15 20 0 11 -22 14 -109 15 -66 1 -112 -2
-116 -9 -4 -6 7 -8 30 -5 19 2 34 1 31 -3 -9 -15 -96 -73 -96 -64 0 5 7 15 15
22 8 7 15 16 15 20 0 12 -54 9 -63 -4 -5 -7 -12 -5 -22 8 -12 16 -12 22 -2 28
7 4 -4 8 -27 8 -29 0 -37 -3 -33 -14 3 -8 3 -16 -1 -18 -4 -2 -19 -18 -32 -37
-29 -41 -37 -28 -16 24 20 46 20 45 -3 45 -29 0 -51 -11 -51 -24 0 -14 -97
-106 -111 -106 -5 0 -9 -5 -9 -12 0 -6 -2 -9 -5 -6 -3 3 2 21 10 41 10 24 12
47 7 71 l-7 34 -62 -56z"/>
<path d="M1160 4139 c-14 -4 -59 -15 -100 -24 -88 -19 -95 -22 -227 -98 -112
-64 -143 -94 -143 -138 0 -31 34 -69 62 -69 10 0 18 -5 18 -10 0 -15 62 -50
89 -50 15 0 21 -5 18 -14 -4 -10 3 -11 37 -5 62 11 168 14 189 5 11 -5 17 -4
17 3 0 6 -25 22 -55 36 -30 13 -55 29 -55 35 0 6 -4 8 -10 5 -5 -3 -10 -2 -10
3 0 11 43 52 56 52 5 0 25 19 44 41 19 23 53 51 75 64 40 23 123 50 131 42 3
-2 -9 -33 -26 -68 -36 -76 -36 -89 -8 -176 32 -101 47 -112 183 -131 65 -9
135 -4 135 10 0 6 18 34 39 62 51 67 66 122 51 187 -7 27 -10 54 -8 60 2 6 31
-12 65 -41 54 -45 63 -58 73 -103 6 -29 16 -62 23 -75 9 -18 7 -29 -6 -51 -25
-43 -22 -48 29 -45 64 3 79 21 79 92 -1 104 -79 217 -190 275 -161 84 -211
100 -383 122 -124 16 -154 17 -192 4z"/>
<path d="M3540 3825 c-103 -19 -129 -26 -136 -36 -3 -5 -14 -9 -26 -9 -49 0
-158 -96 -177 -155 -27 -89 -18 -117 17 -49 20 39 86 73 96 50 2 -6 5 -2 6 9
1 29 24 55 48 55 11 0 22 4 24 8 2 5 15 12 31 16 32 8 34 -6 15 -78 -14 -54 2
-139 34 -179 32 -40 143 -71 217 -62 107 13 180 111 167 223 -4 30 -11 63 -17
74 -15 28 -7 31 30 12 48 -24 133 -113 161 -169 14 -28 26 -52 28 -54 1 -2 10
-5 20 -6 24 -1 57 -26 65 -47 9 -25 92 -24 129 0 26 17 26 19 12 47 -29 60
-233 258 -274 267 -8 2 -34 15 -57 30 -86 57 -266 80 -413 53z"/>
<path d="M2075 2800 c-11 -4 -34 -13 -50 -19 -17 -7 -45 -24 -63 -40 -28 -23
-34 -37 -42 -92 -11 -74 -7 -81 74 -123 71 -37 101 -33 206 29 14 9 39 14 55
13 24 -3 32 -9 41 -37 13 -40 30 -48 110 -52 49 -2 60 0 62 14 2 10 7 15 12
12 9 -6 22 62 16 85 -13 48 -20 61 -32 56 -7 -3 -16 -1 -19 4 -10 16 -25 11
-26 -7 0 -11 -3 -13 -6 -5 -2 6 -9 12 -14 12 -6 0 -7 -5 -3 -11 4 -8 0 -8 -15
0 -17 10 -21 9 -21 -4 0 -13 -2 -14 -14 -3 -8 7 -12 16 -10 19 2 4 -3 12 -11
19 -13 11 -14 10 -9 -6 5 -14 0 -12 -20 9 -15 15 -24 32 -21 37 3 5 0 7 -7 5
-8 -3 -23 4 -35 15 -12 11 -25 20 -30 20 -4 0 -18 11 -32 24 -30 27 -68 38
-96 26z"/>
<path d="M2725 2663 c-73 -17 -98 -26 -125 -49 -16 -14 -30 -31 -30 -37 0 -7
18 -22 40 -35 22 -12 40 -28 40 -35 0 -7 11 -29 25 -49 18 -27 39 -42 82 -58
32 -11 65 -24 73 -27 25 -11 50 -11 50 0 0 6 6 18 13 26 22 27 40 98 34 136
-16 101 -97 152 -202 128z"/>
<path d="M1797 2550 c-58 -46 -36 -95 55 -126 62 -20 98 -13 98 21 0 14 -4 25
-10 25 -5 0 -10 6 -10 14 0 7 -9 16 -20 19 -11 3 -20 12 -20 21 0 9 -11 18
-25 22 -14 3 -25 10 -25 15 0 15 -16 10 -43 -11z"/>
<path d="M1872 1928 c-57 -28 -145 -110 -156 -143 -9 -32 -163 -185 -185 -185
-5 0 -20 -17 -35 -38 -31 -45 -35 -115 -11 -167 23 -48 85 -70 85 -31 0 30
155 67 268 65 61 -2 75 1 87 17 9 10 14 15 13 9 -3 -12 4 -15 32 -15 16 0 20
7 20 34 0 49 16 86 52 118 25 22 41 28 80 28 43 0 54 -5 94 -42 25 -23 43 -47
40 -55 -3 -7 -1 -13 4 -13 13 0 13 -67 0 -75 -15 -9 -12 -25 5 -25 9 0 15 9
15 24 0 39 21 88 36 82 7 -3 16 4 19 15 6 17 12 19 43 13 108 -20 158 -68 150
-139 -4 -34 -3 -35 32 -35 53 0 250 -37 291 -54 54 -22 149 -104 149 -127 0
-26 22 -33 64 -19 84 27 92 140 12 174 -38 16 -85 70 -118 135 -13 25 -26 48
-29 51 -3 3 -14 29 -24 58 -11 28 -22 52 -26 52 -4 0 -10 11 -13 24 -7 30
-100 126 -121 126 -19 0 -56 20 -71 39 -6 8 -16 11 -24 6 -9 -6 -11 -4 -5 5 6
10 2 11 -19 6 -14 -3 -36 -1 -48 5 -11 6 -53 12 -93 14 -39 1 -81 8 -93 14
-15 8 -22 8 -25 -2 -3 -7 -6 -5 -6 5 -1 12 -15 18 -58 24 -32 4 -61 7 -65 6
-5 -1 -8 3 -8 9 0 7 -9 9 -22 6 -12 -4 -27 -2 -34 3 -15 13 -59 19 -164 22
-76 3 -91 0 -138 -24z"/>
<path d="M1764 1145 c-4 -9 -13 -14 -21 -11 -8 3 -11 1 -8 -4 3 -6 1 -10 -5
-10 -6 0 -3 -11 6 -25 9 -14 19 -24 21 -21 5 5 61 -51 83 -83 8 -11 18 -21 23
-21 4 0 17 -9 29 -20 12 -11 18 -20 12 -20 -5 0 -2 -5 6 -10 8 -5 23 -7 33 -4
9 3 17 0 17 -6 0 -7 8 -9 21 -5 13 5 19 3 15 -3 -7 -12 19 -19 67 -17 20 0 37
-2 37 -5 0 -3 21 -12 48 -19 26 -8 53 -18 59 -24 7 -5 19 -7 27 -4 7 3 18 1
24 -5 15 -15 121 -21 137 -8 7 6 25 8 41 4 23 -6 26 -4 21 10 -7 19 8 22 17 4
3 -7 3 -3 0 10 -3 13 -1 22 6 22 8 0 10 8 7 22 -8 30 10 58 37 58 13 0 29 7
36 15 7 9 21 13 31 10 13 -4 19 -1 19 9 0 10 -10 16 -27 17 -47 2 -52 4 -65
21 -19 25 -86 28 -127 5 -26 -14 -48 -17 -94 -14 -51 4 -63 9 -86 34 -14 17
-37 33 -51 36 -14 4 -56 13 -95 22 -38 9 -74 20 -79 25 -5 5 -15 6 -22 3 -8
-3 -14 0 -14 6 0 15 -37 14 -42 0 -2 -7 -18 -13 -36 -15 -25 -3 -32 0 -32 14
0 13 -2 14 -9 3 -5 -7 -10 -9 -12 -3 -2 5 -14 13 -27 16 -16 5 -24 3 -28 -9z"/>
<path d="M0 666 c0 -151 20 -240 77 -349 8 -15 11 -32 8 -37 -3 -6 -1 -10 5
-10 20 0 40 -28 40 -55 0 -14 7 -28 15 -31 8 -4 15 -16 15 -29 0 -12 7 -28 15
-35 8 -7 15 -9 15 -4 0 5 7 -1 15 -13 9 -12 15 -26 14 -30 -1 -4 4 -23 11 -41
l12 -32 449 0 c293 0 449 3 449 10 0 6 -4 10 -10 10 -5 0 -10 7 -10 15 0 12
-4 14 -17 6 -11 -6 -24 -6 -35 0 -10 5 -18 7 -18 5 0 -6 -48 37 -91 80 -27 27
-61 49 -91 60 -10 3 -18 9 -18 13 0 7 -115 91 -125 91 -2 0 -16 12 -29 25 -15
15 -31 22 -40 19 -11 -4 -16 -1 -16 10 0 9 -7 16 -16 16 -26 0 -58 21 -45 29
9 6 7 14 -7 31 -14 17 -29 23 -64 24 -28 1 -53 8 -65 19 -11 9 -25 17 -31 17
-6 0 -16 9 -22 20 -6 11 -15 20 -21 20 -13 0 -48 40 -49 55 0 6 -16 19 -36 30
-30 16 -37 17 -45 4 -8 -12 -10 -12 -18 0 -5 8 -19 12 -35 9 -18 -4 -26 -1
-26 9 0 8 -11 25 -25 39 -20 20 -29 23 -39 15 -10 -9 -15 -8 -20 5 -3 9 -3 21
1 26 3 7 1 8 -6 4 -17 -11 -41 12 -41 39 0 12 -7 28 -15 35 -13 11 -15 -4 -15
-124z"/>
<path d="M4587 640 c-80 -29 -106 -31 -209 -15 -60 10 -65 5 -124 -104 -26
-47 -79 -138 -117 -201 -69 -112 -157 -286 -157 -309 0 -8 112 -11 415 -11
l415 0 0 329 0 329 -22 6 c-48 12 -126 3 -201 -24z"/>
</g>
</svg>
